<svg xmlns="http://www.w3.org/2000/svg" xmlns:xlink="http://www.w3.org/1999/xlink" width="500" zoomAndPan="magnify" viewBox="0 0 375 374.999991" height="500" preserveAspectRatio="xMidYMid meet" version="1.0"><defs><clipPath id="f39f268c6a"><path d="M 111 101 L 268 101 L 268 258 L 111 258 Z M 111 101 " clip-rule="nonzero"/></clipPath><clipPath id="6d3811559e"><path d="M 256.472656 179.207031 C 256.472656 216.121094 226.515625 246.046875 189.558594 246.046875 C 152.601562 246.046875 122.644531 216.121094 122.644531 179.207031 C 122.644531 142.289062 152.601562 112.363281 189.558594 112.363281 C 226.515625 112.363281 256.472656 142.289062 256.472656 179.207031 Z M 267.769531 179.207031 C 267.769531 222.351562 232.753906 257.332031 189.558594 257.332031 C 146.363281 257.332031 111.347656 222.351562 111.347656 179.207031 C 111.347656 136.058594 146.363281 101.082031 189.558594 101.082031 C 232.753906 101.082031 267.769531 136.058594 267.769531 179.207031 Z M 232.710938 144.183594 C 232.710938 148.648438 229.085938 152.265625 224.617188 152.265625 C 220.148438 152.265625 216.527344 148.648438 216.527344 144.183594 C 216.527344 139.71875 220.148438 136.101562 224.617188 136.101562 C 229.085938 136.101562 232.710938 139.71875 232.710938 144.183594 Z M 166.03125 185.503906 C 169.511719 198.480469 182.867188 206.183594 195.863281 202.707031 C 208.855469 199.226562 216.566406 185.886719 213.082031 172.910156 C 209.601562 159.929688 196.246094 152.226562 183.253906 155.707031 C 170.261719 159.183594 162.550781 172.523438 166.03125 185.503906 Z M 155.121094 188.421875 C 160.214844 207.421875 179.765625 218.695312 198.785156 213.605469 C 217.804688 208.515625 229.089844 188.988281 223.996094 169.988281 C 218.898438 150.988281 199.351562 139.714844 180.332031 144.804688 C 161.3125 149.894531 150.023438 169.425781 155.121094 188.421875 Z M 155.121094 188.421875 " clip-rule="evenodd"/></clipPath><linearGradient x1="15" gradientTransform="matrix(5.214023, 0, 0, 5.208333, 111.348047, 85.455318)" y1="3.000001" x2="15" gradientUnits="userSpaceOnUse" y2="32.999999" id="eeda0521c0"><stop stop-opacity="1" stop-color="rgb(52.89917%, 49.398804%, 100%)" offset="0"/><stop stop-opacity="1" stop-color="rgb(52.796936%, 49.28894%, 100%)" offset="0.0078125"/><stop stop-opacity="1" stop-color="rgb(52.590942%, 49.07074%, 100%)" offset="0.015625"/><stop stop-opacity="1" stop-color="rgb(52.386475%, 48.852539%, 100%)" offset="0.0234375"/><stop stop-opacity="1" stop-color="rgb(52.180481%, 48.632812%, 100%)" offset="0.03125"/><stop stop-opacity="1" stop-color="rgb(51.976013%, 48.414612%, 100%)" offset="0.0390625"/><stop stop-opacity="1" stop-color="rgb(51.771545%, 48.196411%, 100%)" offset="0.046875"/><stop stop-opacity="1" stop-color="rgb(51.565552%, 47.97821%, 100%)" offset="0.0546875"/><stop stop-opacity="1" stop-color="rgb(51.361084%, 47.758484%, 100%)" offset="0.0625"/><stop stop-opacity="1" stop-color="rgb(51.156616%, 47.540283%, 100%)" offset="0.0703125"/><stop stop-opacity="1" stop-color="rgb(50.950623%, 47.322083%, 100%)" offset="0.078125"/><stop stop-opacity="1" stop-color="rgb(50.746155%, 47.103882%, 100%)" offset="0.0859375"/><stop stop-opacity="1" stop-color="rgb(50.540161%, 46.884155%, 100%)" offset="0.09375"/><stop stop-opacity="1" stop-color="rgb(50.335693%, 46.665955%, 100%)" offset="0.101563"/><stop stop-opacity="1" stop-color="rgb(50.131226%, 46.447754%, 100%)" offset="0.109375"/><stop stop-opacity="1" stop-color="rgb(49.925232%, 46.228027%, 100%)" offset="0.117188"/><stop stop-opacity="1" stop-color="rgb(49.720764%, 46.009827%, 100%)" offset="0.125"/><stop stop-opacity="1" stop-color="rgb(49.514771%, 45.791626%, 100%)" offset="0.132813"/><stop stop-opacity="1" stop-color="rgb(49.310303%, 45.573425%, 100%)" offset="0.140625"/><stop stop-opacity="1" stop-color="rgb(49.105835%, 45.353699%, 100%)" offset="0.148438"/><stop stop-opacity="1" stop-color="rgb(48.899841%, 45.135498%, 100%)" offset="0.15625"/><stop stop-opacity="1" stop-color="rgb(48.695374%, 44.917297%, 100%)" offset="0.164063"/><stop stop-opacity="1" stop-color="rgb(48.490906%, 44.699097%, 100%)" offset="0.171875"/><stop stop-opacity="1" stop-color="rgb(48.284912%, 44.47937%, 100%)" offset="0.179688"/><stop stop-opacity="1" stop-color="rgb(48.080444%, 44.261169%, 100%)" offset="0.1875"/><stop stop-opacity="1" stop-color="rgb(47.874451%, 44.042969%, 100%)" offset="0.195313"/><stop stop-opacity="1" stop-color="rgb(47.669983%, 43.824768%, 100%)" offset="0.203125"/><stop stop-opacity="1" stop-color="rgb(47.465515%, 43.605042%, 100%)" offset="0.210938"/><stop stop-opacity="1" stop-color="rgb(47.259521%, 43.386841%, 100%)" offset="0.21875"/><stop stop-opacity="1" stop-color="rgb(47.055054%, 43.16864%, 100%)" offset="0.226563"/><stop stop-opacity="1" stop-color="rgb(46.84906%, 42.948914%, 100%)" offset="0.234375"/><stop stop-opacity="1" stop-color="rgb(46.644592%, 42.730713%, 100%)" offset="0.242188"/><stop stop-opacity="1" stop-color="rgb(46.440125%, 42.512512%, 100%)" offset="0.25"/><stop stop-opacity="1" stop-color="rgb(46.234131%, 42.294312%, 100%)" offset="0.257812"/><stop stop-opacity="1" stop-color="rgb(46.029663%, 42.074585%, 100%)" offset="0.265625"/><stop stop-opacity="1" stop-color="rgb(45.825195%, 41.856384%, 100%)" offset="0.273438"/><stop stop-opacity="1" stop-color="rgb(45.619202%, 41.638184%, 100%)" offset="0.28125"/><stop stop-opacity="1" stop-color="rgb(45.414734%, 41.419983%, 100%)" offset="0.289062"/><stop stop-opacity="1" stop-color="rgb(45.20874%, 41.200256%, 100%)" offset="0.296875"/><stop stop-opacity="1" stop-color="rgb(45.004272%, 40.982056%, 100%)" offset="0.304688"/><stop stop-opacity="1" stop-color="rgb(44.799805%, 40.763855%, 100%)" offset="0.3125"/><stop stop-opacity="1" stop-color="rgb(44.593811%, 40.544128%, 100%)" offset="0.320312"/><stop stop-opacity="1" stop-color="rgb(44.389343%, 40.325928%, 100%)" offset="0.328125"/><stop stop-opacity="1" stop-color="rgb(44.18335%, 40.107727%, 100%)" offset="0.335938"/><stop stop-opacity="1" stop-color="rgb(43.978882%, 39.889526%, 100%)" offset="0.34375"/><stop stop-opacity="1" stop-color="rgb(43.774414%, 39.6698%, 100%)" offset="0.351562"/><stop stop-opacity="1" stop-color="rgb(43.56842%, 39.451599%, 100%)" offset="0.359375"/><stop stop-opacity="1" stop-color="rgb(43.363953%, 39.233398%, 100%)" offset="0.367188"/><stop stop-opacity="1" stop-color="rgb(43.159485%, 39.015198%, 100%)" offset="0.375"/><stop stop-opacity="1" stop-color="rgb(42.953491%, 38.795471%, 100%)" offset="0.382812"/><stop stop-opacity="1" stop-color="rgb(42.749023%, 38.577271%, 100%)" offset="0.390625"/><stop stop-opacity="1" stop-color="rgb(42.54303%, 38.35907%, 100%)" offset="0.398438"/><stop stop-opacity="1" stop-color="rgb(42.338562%, 38.139343%, 100%)" offset="0.40625"/><stop stop-opacity="1" stop-color="rgb(42.134094%, 37.921143%, 100%)" offset="0.414062"/><stop stop-opacity="1" stop-color="rgb(41.928101%, 37.702942%, 100%)" offset="0.421875"/><stop stop-opacity="1" stop-color="rgb(41.723633%, 37.484741%, 100%)" offset="0.429688"/><stop stop-opacity="1" stop-color="rgb(41.517639%, 37.265015%, 100%)" offset="0.4375"/><stop stop-opacity="1" stop-color="rgb(41.313171%, 37.046814%, 100%)" offset="0.445312"/><stop stop-opacity="1" stop-color="rgb(41.108704%, 36.828613%, 100%)" offset="0.453125"/><stop stop-opacity="1" stop-color="rgb(40.90271%, 36.610413%, 100%)" offset="0.460938"/><stop stop-opacity="1" stop-color="rgb(40.644836%, 36.329651%, 100%)" offset="0.46875"/><stop stop-opacity="1" stop-color="rgb(40.332031%, 35.98938%, 100%)" offset="0.476562"/><stop stop-opacity="1" stop-color="rgb(40.0177%, 35.646057%, 100%)" offset="0.484375"/><stop stop-opacity="1" stop-color="rgb(39.704895%, 35.30426%, 100%)" offset="0.492188"/><stop stop-opacity="1" stop-color="rgb(39.39209%, 34.962463%, 100%)" offset="0.5"/><stop stop-opacity="1" stop-color="rgb(39.079285%, 34.620667%, 100%)" offset="0.507812"/><stop stop-opacity="1" stop-color="rgb(38.766479%, 34.27887%, 100%)" offset="0.515625"/><stop stop-opacity="1" stop-color="rgb(38.453674%, 33.937073%, 100%)" offset="0.523438"/><stop stop-opacity="1" stop-color="rgb(38.139343%, 33.59375%, 100%)" offset="0.53125"/><stop stop-opacity="1" stop-color="rgb(37.826538%, 33.251953%, 100%)" offset="0.539063"/><stop stop-opacity="1" stop-color="rgb(37.513733%, 32.910156%, 100%)" offset="0.546875"/><stop stop-opacity="1" stop-color="rgb(37.200928%, 32.568359%, 100%)" offset="0.554688"/><stop stop-opacity="1" stop-color="rgb(36.888123%, 32.226562%, 100%)" offset="0.5625"/><stop stop-opacity="1" stop-color="rgb(36.573792%, 31.88324%, 100%)" offset="0.570313"/><stop stop-opacity="1" stop-color="rgb(36.260986%, 31.541443%, 100%)" offset="0.578125"/><stop stop-opacity="1" stop-color="rgb(35.948181%, 31.199646%, 100%)" offset="0.585938"/><stop stop-opacity="1" stop-color="rgb(35.635376%, 30.857849%, 100%)" offset="0.59375"/><stop stop-opacity="1" stop-color="rgb(35.322571%, 30.516052%, 100%)" offset="0.601563"/><stop stop-opacity="1" stop-color="rgb(35.009766%, 30.174255%, 100%)" offset="0.609375"/><stop stop-opacity="1" stop-color="rgb(34.695435%, 29.830933%, 100%)" offset="0.617188"/><stop stop-opacity="1" stop-color="rgb(34.382629%, 29.489136%, 100%)" offset="0.625"/><stop stop-opacity="1" stop-color="rgb(34.069824%, 29.147339%, 100%)" offset="0.632812"/><stop stop-opacity="1" stop-color="rgb(33.757019%, 28.805542%, 100%)" offset="0.640625"/><stop stop-opacity="1" stop-color="rgb(33.444214%, 28.463745%, 100%)" offset="0.648438"/><stop stop-opacity="1" stop-color="rgb(33.131409%, 28.120422%, 100%)" offset="0.65625"/><stop stop-opacity="1" stop-color="rgb(32.817078%, 27.778625%, 100%)" offset="0.664062"/><stop stop-opacity="1" stop-color="rgb(32.504272%, 27.436829%, 100%)" offset="0.671875"/><stop stop-opacity="1" stop-color="rgb(32.191467%, 27.095032%, 100%)" offset="0.679688"/><stop stop-opacity="1" stop-color="rgb(31.878662%, 26.753235%, 100%)" offset="0.6875"/><stop stop-opacity="1" stop-color="rgb(31.565857%, 26.411438%, 100%)" offset="0.695312"/><stop stop-opacity="1" stop-color="rgb(31.251526%, 26.068115%, 100%)" offset="0.703125"/><stop stop-opacity="1" stop-color="rgb(30.938721%, 25.726318%, 100%)" offset="0.710938"/><stop stop-opacity="1" stop-color="rgb(30.625916%, 25.384521%, 100%)" offset="0.71875"/><stop stop-opacity="1" stop-color="rgb(30.31311%, 25.042725%, 100%)" offset="0.726562"/><stop stop-opacity="1" stop-color="rgb(30.000305%, 24.700928%, 100%)" offset="0.734375"/><stop stop-opacity="1" stop-color="rgb(29.6875%, 24.359131%, 100%)" offset="0.742188"/><stop stop-opacity="1" stop-color="rgb(29.373169%, 24.015808%, 100%)" offset="0.75"/><stop stop-opacity="1" stop-color="rgb(29.060364%, 23.674011%, 100%)" offset="0.757812"/><stop stop-opacity="1" stop-color="rgb(28.747559%, 23.332214%, 100%)" offset="0.765625"/><stop stop-opacity="1" stop-color="rgb(28.434753%, 22.990417%, 100%)" offset="0.773438"/><stop stop-opacity="1" stop-color="rgb(28.121948%, 22.648621%, 100%)" offset="0.78125"/><stop stop-opacity="1" stop-color="rgb(27.807617%, 22.305298%, 100%)" offset="0.789062"/><stop stop-opacity="1" stop-color="rgb(27.494812%, 21.963501%, 100%)" offset="0.796875"/><stop stop-opacity="1" stop-color="rgb(27.182007%, 21.621704%, 100%)" offset="0.804688"/><stop stop-opacity="1" stop-color="rgb(26.869202%, 21.279907%, 100%)" offset="0.8125"/><stop stop-opacity="1" stop-color="rgb(26.556396%, 20.93811%, 100%)" offset="0.820312"/><stop stop-opacity="1" stop-color="rgb(26.243591%, 20.596313%, 100%)" offset="0.828125"/><stop stop-opacity="1" stop-color="rgb(25.92926%, 20.252991%, 100%)" offset="0.835938"/><stop stop-opacity="1" stop-color="rgb(25.616455%, 19.911194%, 100%)" offset="0.84375"/><stop stop-opacity="1" stop-color="rgb(25.30365%, 19.569397%, 100%)" offset="0.851562"/><stop stop-opacity="1" stop-color="rgb(24.990845%, 19.2276%, 100%)" offset="0.859375"/><stop stop-opacity="1" stop-color="rgb(24.67804%, 18.885803%, 100%)" offset="0.867188"/><stop stop-opacity="1" stop-color="rgb(24.363708%, 18.54248%, 100%)" offset="0.875"/><stop stop-opacity="1" stop-color="rgb(24.050903%, 18.200684%, 100%)" offset="0.882812"/><stop stop-opacity="1" stop-color="rgb(23.738098%, 17.858887%, 100%)" offset="0.890625"/><stop stop-opacity="1" stop-color="rgb(23.425293%, 17.51709%, 100%)" offset="0.898438"/><stop stop-opacity="1" stop-color="rgb(23.112488%, 17.175293%, 100%)" offset="0.90625"/><stop stop-opacity="1" stop-color="rgb(22.799683%, 16.833496%, 100%)" offset="0.914062"/><stop stop-opacity="1" stop-color="rgb(22.485352%, 16.490173%, 100%)" offset="0.921875"/><stop stop-opacity="1" stop-color="rgb(22.172546%, 16.148376%, 100%)" offset="0.929688"/><stop stop-opacity="1" stop-color="rgb(21.859741%, 15.80658%, 100%)" offset="0.9375"/><stop stop-opacity="1" stop-color="rgb(21.546936%, 15.464783%, 100%)" offset="0.945312"/><stop stop-opacity="1" stop-color="rgb(21.234131%, 15.122986%, 100%)" offset="0.953125"/><stop stop-opacity="1" stop-color="rgb(20.9198%, 14.781189%, 100%)" offset="0.960938"/><stop stop-opacity="1" stop-color="rgb(20.606995%, 14.437866%, 100%)" offset="0.96875"/><stop stop-opacity="1" stop-color="rgb(20.294189%, 14.096069%, 100%)" offset="0.976562"/><stop stop-opacity="1" stop-color="rgb(19.981384%, 13.754272%, 100%)" offset="0.984375"/><stop stop-opacity="1" stop-color="rgb(19.668579%, 13.412476%, 100%)" offset="0.992188"/><stop stop-opacity="1" stop-color="rgb(19.355774%, 13.070679%, 100%)" offset="1"/></linearGradient><clipPath id="60e2323023"><path d="M 281.367188 123.023438 L 375 123.023438 L 375 235.523438 L 281.367188 235.523438 Z M 281.367188 123.023438 " clip-rule="nonzero"/></clipPath></defs><rect x="-37.5" width="450" fill="#ffffff" y="-37.499999" height="449.999989" fill-opacity="1"/><rect x="-37.5" width="450" fill="#000000" y="-37.499999" height="449.999989" fill-opacity="1"/><g clip-path="url(#f39f268c6a)"><g clip-path="url(#6d3811559e)"><path fill="url(#eeda0521c0)" d="M 111.347656 101.082031 L 111.347656 257.332031 L 267.769531 257.332031 L 267.769531 101.082031 Z M 111.347656 101.082031 " fill-rule="nonzero"/></g></g><path fill="#ffffff" d="M 355.035156 233.351562 C 347.074219 233.351562 340.046875 231.925781 333.953125 229.078125 C 327.859375 226.230469 323.09375 222.160156 319.652344 216.855469 C 316.214844 211.554688 314.492188 205.171875 314.492188 197.710938 L 314.492188 193.589844 L 333.660156 193.589844 L 333.660156 197.710938 C 333.660156 203.898438 335.574219 208.558594 339.410156 211.703125 C 343.242188 214.746094 348.449219 216.269531 355.035156 216.269531 C 361.71875 216.269531 366.683594 214.941406 369.925781 212.292969 C 373.265625 209.640625 374.9375 206.253906 374.9375 202.128906 C 374.9375 199.28125 374.101562 196.976562 372.433594 195.207031 C 370.859375 193.441406 368.5 192.019531 365.355469 190.9375 C 362.308594 189.761719 358.574219 188.679688 354.152344 187.699219 L 350.761719 186.960938 C 343.683594 185.390625 337.589844 183.425781 332.480469 181.070312 C 327.464844 178.617188 323.585938 175.425781 320.832031 171.5 C 318.179688 167.570312 316.851562 162.464844 316.851562 156.183594 C 316.851562 149.898438 318.328125 144.550781 321.273438 140.132812 C 324.320312 135.617188 328.546875 132.179688 333.953125 129.824219 C 339.457031 127.367188 345.894531 126.140625 353.265625 126.140625 C 360.636719 126.140625 367.171875 127.417969 372.875 129.96875 C 378.671875 132.425781 383.195312 136.15625 386.4375 141.164062 C 389.777344 146.070312 391.449219 152.257812 391.449219 159.71875 L 391.449219 164.136719 L 372.285156 164.136719 L 372.285156 159.71875 C 372.285156 155.789062 371.5 152.648438 369.925781 150.292969 C 368.453125 147.839844 366.289062 146.070312 363.4375 144.992188 C 360.589844 143.8125 357.199219 143.222656 353.265625 143.222656 C 347.371094 143.222656 342.996094 144.351562 340.144531 146.609375 C 337.394531 148.769531 336.019531 151.765625 336.019531 155.59375 C 336.019531 158.148438 336.65625 160.308594 337.933594 162.074219 C 339.308594 163.839844 341.324219 165.3125 343.976562 166.492188 C 346.632812 167.667969 350.023438 168.699219 354.152344 169.585938 L 357.542969 170.320312 C 364.914062 171.890625 371.300781 173.902344 376.707031 176.359375 C 382.210938 178.8125 386.488281 182.054688 389.535156 186.078125 C 392.578125 190.105469 394.101562 195.257812 394.101562 201.542969 C 394.101562 207.824219 392.480469 213.371094 389.238281 218.183594 C 386.09375 222.894531 381.570312 226.625 375.675781 229.375 C 369.875 232.023438 362.996094 233.351562 355.035156 233.351562 Z M 404.785156 231.289062 L 404.785156 158.246094 L 423.066406 158.246094 L 423.066406 167.816406 L 425.71875 167.816406 C 426.898438 165.265625 429.109375 162.859375 432.351562 160.601562 C 435.59375 158.246094 440.511719 157.066406 447.09375 157.066406 C 452.796875 157.066406 457.757812 158.390625 461.984375 161.042969 C 466.308594 163.597656 469.652344 167.179688 472.011719 171.792969 C 474.367188 176.308594 475.546875 181.609375 475.546875 187.699219 L 475.546875 231.289062 L 456.972656 231.289062 L 456.972656 189.171875 C 456.972656 183.671875 455.597656 179.550781 452.84375 176.800781 C 450.191406 174.050781 446.359375 172.675781 441.34375 172.675781 C 435.644531 172.675781 431.222656 174.589844 428.078125 178.421875 C 424.933594 182.152344 423.359375 187.402344 423.359375 194.175781 L 423.359375 231.289062 Z M 513.910156 233.351562 C 508.699219 233.351562 504.03125 232.464844 499.90625 230.699219 C 495.777344 228.835938 492.484375 226.183594 490.027344 222.746094 C 487.667969 219.214844 486.488281 214.941406 486.488281 209.933594 C 486.488281 204.929688 487.667969 200.753906 490.027344 197.417969 C 492.484375 193.980469 495.824219 191.429688 500.050781 189.761719 C 504.375 187.992188 509.289062 187.109375 514.792969 187.109375 L 534.84375 187.109375 L 534.84375 182.984375 C 534.84375 179.550781 533.761719 176.75 531.601562 174.589844 C 529.4375 172.332031 526 171.203125 521.28125 171.203125 C 516.664062 171.203125 513.222656 172.285156 510.960938 174.445312 C 508.699219 176.503906 507.226562 179.207031 506.539062 182.542969 L 489.4375 176.800781 C 490.617188 173.070312 492.484375 169.683594 495.039062 166.640625 C 497.691406 163.496094 501.183594 160.992188 505.507812 159.128906 C 509.929688 157.164062 515.285156 156.183594 521.578125 156.183594 C 531.207031 156.183594 538.824219 158.589844 544.425781 163.398438 C 550.03125 168.210938 552.832031 175.179688 552.832031 184.3125 L 552.832031 211.554688 C 552.832031 214.5 554.207031 215.972656 556.957031 215.972656 L 562.855469 215.972656 L 562.855469 231.289062 L 550.472656 231.289062 C 546.835938 231.289062 543.835938 230.40625 541.480469 228.636719 C 539.121094 226.871094 537.941406 224.515625 537.941406 221.570312 L 537.941406 221.421875 L 535.140625 221.421875 C 534.746094 222.601562 533.863281 224.171875 532.484375 226.132812 C 531.109375 228 528.949219 229.667969 526 231.140625 C 523.050781 232.613281 519.019531 233.351562 513.910156 233.351562 Z M 517.152344 218.328125 C 522.363281 218.328125 526.589844 216.90625 529.832031 214.058594 C 533.171875 211.113281 534.84375 207.234375 534.84375 202.425781 L 534.84375 200.953125 L 516.121094 200.953125 C 512.679688 200.953125 509.980469 201.6875 508.011719 203.160156 C 506.046875 204.632812 505.066406 206.695312 505.066406 209.347656 C 505.066406 211.996094 506.097656 214.15625 508.160156 215.824219 C 510.222656 217.496094 513.222656 218.328125 517.152344 218.328125 Z M 572.015625 260.742188 L 572.015625 158.246094 L 590.296875 158.246094 L 590.296875 167.082031 L 592.949219 167.082031 C 594.621094 164.234375 597.222656 161.730469 600.761719 159.570312 C 604.300781 157.3125 609.363281 156.183594 615.945312 156.183594 C 621.84375 156.183594 627.300781 157.65625 632.3125 160.601562 C 637.324219 163.449219 641.355469 167.667969 644.398438 173.265625 C 647.449219 178.863281 648.972656 185.636719 648.972656 193.589844 L 648.972656 195.945312 C 648.972656 203.898438 647.449219 210.671875 644.398438 216.269531 C 641.355469 221.863281 637.324219 226.132812 632.3125 229.078125 C 627.300781 231.925781 621.84375 233.351562 615.945312 233.351562 C 611.523438 233.351562 607.789062 232.808594 604.742188 231.730469 C 601.792969 230.75 599.386719 229.472656 597.519531 227.902344 C 595.75 226.230469 594.324219 224.5625 593.242188 222.894531 L 590.589844 222.894531 L 590.589844 260.742188 Z M 610.34375 217.152344 C 616.144531 217.152344 620.910156 215.335938 624.644531 211.703125 C 628.480469 207.972656 630.394531 202.570312 630.394531 195.503906 L 630.394531 194.03125 C 630.394531 186.960938 628.480469 181.609375 624.644531 177.980469 C 620.8125 174.246094 616.046875 172.382812 610.34375 172.382812 C 604.644531 172.382812 599.878906 174.246094 596.042969 177.980469 C 592.210938 181.609375 590.296875 186.960938 590.296875 194.03125 L 590.296875 195.503906 C 590.296875 202.570312 592.210938 207.972656 596.042969 211.703125 C 599.878906 215.335938 604.644531 217.152344 610.34375 217.152344 Z M 658.066406 195.0625 L 658.066406 192.707031 C 658.066406 185.046875 659.59375 178.519531 662.636719 173.117188 C 665.683594 167.621094 669.710938 163.449219 674.722656 160.601562 C 679.839844 157.65625 685.390625 156.183594 691.382812 156.183594 C 698.066406 156.183594 703.128906 157.363281 706.570312 159.71875 C 710.011719 162.074219 712.515625 164.527344 714.089844 167.082031 L 716.742188 167.082031 L 716.742188 158.246094 L 735.023438 158.246094 L 735.023438 244.246094 C 735.023438 249.253906 733.546875 253.230469 730.601562 256.175781 C 727.652344 259.21875 723.71875 260.742188 718.808594 260.742188 L 669.859375 260.742188 L 669.859375 244.542969 L 712.316406 244.542969 C 715.070312 244.542969 716.445312 243.070312 716.445312 240.125 L 716.445312 221.128906 L 713.792969 221.128906 C 712.8125 222.699219 711.433594 224.316406 709.667969 225.988281 C 707.894531 227.558594 705.539062 228.882812 702.585938 229.964844 C 699.640625 231.042969 695.90625 231.582031 691.382812 231.582031 C 685.390625 231.582031 679.839844 230.160156 674.722656 227.3125 C 669.710938 224.367188 665.683594 220.195312 662.636719 214.792969 C 659.59375 209.296875 658.066406 202.71875 658.066406 195.0625 Z M 696.691406 215.382812 C 702.394531 215.382812 707.160156 213.566406 710.992188 209.933594 C 714.824219 206.300781 716.742188 201.199219 716.742188 194.621094 L 716.742188 193.148438 C 716.742188 186.472656 714.824219 181.367188 710.992188 177.832031 C 707.257812 174.199219 702.492188 172.382812 696.691406 172.382812 C 690.992188 172.382812 686.226562 174.199219 682.394531 177.832031 C 678.5625 181.367188 676.640625 186.472656 676.640625 193.148438 L 676.640625 194.621094 C 676.640625 201.199219 678.5625 206.300781 682.394531 209.933594 C 686.226562 213.566406 690.992188 215.382812 696.691406 215.382812 Z M 751.191406 231.289062 L 751.191406 158.246094 L 769.476562 158.246094 L 769.476562 166.492188 L 772.125 166.492188 C 773.210938 163.546875 774.980469 161.386719 777.433594 160.011719 C 779.988281 158.636719 782.941406 157.949219 786.28125 157.949219 L 795.125 157.949219 L 795.125 174.445312 L 785.984375 174.445312 C 781.273438 174.445312 777.386719 175.71875 774.34375 178.273438 C 771.292969 180.726562 769.769531 184.554688 769.769531 189.761719 L 769.769531 231.289062 Z M 826.199219 233.351562 C 820.992188 233.351562 816.320312 232.464844 812.195312 230.699219 C 808.066406 228.835938 804.773438 226.183594 802.316406 222.746094 C 799.957031 219.214844 798.78125 214.941406 798.78125 209.933594 C 798.78125 204.929688 799.957031 200.753906 802.316406 197.417969 C 804.773438 193.980469 808.113281 191.429688 812.34375 189.761719 C 816.664062 187.992188 821.582031 187.109375 827.082031 187.109375 L 847.136719 187.109375 L 847.136719 182.984375 C 847.136719 179.550781 846.050781 176.75 843.890625 174.589844 C 841.726562 172.332031 838.289062 171.203125 833.570312 171.203125 C 828.953125 171.203125 825.511719 172.285156 823.25 174.445312 C 820.992188 176.503906 819.515625 179.207031 818.828125 182.542969 L 801.726562 176.800781 C 802.90625 173.070312 804.773438 169.683594 807.332031 166.640625 C 809.984375 163.496094 813.472656 160.992188 817.796875 159.128906 C 822.21875 157.164062 827.578125 156.183594 833.867188 156.183594 C 843.496094 156.183594 851.113281 158.589844 856.71875 163.398438 C 862.320312 168.210938 865.117188 175.179688 865.117188 184.3125 L 865.117188 211.554688 C 865.117188 214.5 866.496094 215.972656 869.25 215.972656 L 875.144531 215.972656 L 875.144531 231.289062 L 862.761719 231.289062 C 859.121094 231.289062 856.128906 230.40625 853.769531 228.636719 C 851.410156 226.871094 850.234375 224.515625 850.234375 221.570312 L 850.234375 221.421875 L 847.425781 221.421875 C 847.035156 222.601562 846.148438 224.171875 844.773438 226.132812 C 843.398438 228 841.238281 229.667969 838.289062 231.140625 C 835.339844 232.613281 831.3125 233.351562 826.199219 233.351562 Z M 829.445312 218.328125 C 834.652344 218.328125 838.875 216.90625 842.121094 214.058594 C 845.460938 211.113281 847.136719 207.234375 847.136719 202.425781 L 847.136719 200.953125 L 828.410156 200.953125 C 824.96875 200.953125 822.269531 201.6875 820.304688 203.160156 C 818.339844 204.632812 817.351562 206.695312 817.351562 209.347656 C 817.351562 211.996094 818.386719 214.15625 820.449219 215.824219 C 822.515625 217.496094 825.511719 218.328125 829.445312 218.328125 Z M 884.304688 231.289062 L 884.304688 158.246094 L 902.585938 158.246094 L 902.585938 166.199219 L 905.242188 166.199219 C 906.519531 163.742188 908.628906 161.632812 911.574219 159.863281 C 914.527344 158 918.410156 157.066406 923.222656 157.066406 C 928.433594 157.066406 932.609375 158.097656 935.757812 160.160156 C 938.902344 162.121094 941.3125 164.722656 942.980469 167.964844 L 945.632812 167.964844 C 947.300781 164.824219 949.664062 162.222656 952.710938 160.160156 C 955.753906 158.097656 960.082031 157.066406 965.679688 157.066406 C 970.203125 157.066406 974.285156 158.050781 977.917969 160.011719 C 981.652344 161.878906 984.601562 164.773438 986.765625 168.699219 C 989.023438 172.53125 990.15625 177.390625 990.15625 183.28125 L 990.15625 231.289062 L 971.578125 231.289062 L 971.578125 184.605469 C 971.578125 180.582031 970.546875 177.585938 968.488281 175.621094 C 966.421875 173.558594 963.523438 172.53125 959.785156 172.53125 C 955.5625 172.53125 952.265625 173.902344 949.910156 176.652344 C 947.644531 179.304688 946.519531 183.132812 946.519531 188.140625 L 946.519531 231.289062 L 927.941406 231.289062 L 927.941406 184.605469 C 927.941406 180.582031 926.910156 177.585938 924.84375 175.621094 C 922.78125 173.558594 919.882812 172.53125 916.148438 172.53125 C 911.917969 172.53125 908.628906 173.902344 906.273438 176.652344 C 904.011719 179.304688 902.878906 183.132812 902.878906 188.140625 L 902.878906 231.289062 Z M 884.304688 231.289062 " fill-opacity="1" fill-rule="nonzero"/><g clip-path="url(#60e2323023)"><path fill="#000000" d="M 281.367188 123.023438 L 429.464844 123.023438 L 429.464844 235.523438 L 281.367188 235.523438 Z M 281.367188 123.023438 " fill-opacity="1" fill-rule="nonzero"/></g></svg>